<mxfile host="Electron" agent="Mozilla/5.0 (Windows NT 10.0; Win64; x64) AppleWebKit/537.36 (KHTML, like Gecko) draw.io/27.0.9 Chrome/134.0.6998.205 Electron/35.4.0 Safari/537.36" version="27.0.9">
  <diagram name="Página-1" id="grA0yjFUvoEzuOteO6T0">
    <mxGraphModel dx="1830" dy="943" grid="1" gridSize="10" guides="1" tooltips="1" connect="1" arrows="1" fold="1" page="1" pageScale="1" pageWidth="1169" pageHeight="1654" math="0" shadow="0">
      <root>
        <mxCell id="0" />
        <mxCell id="1" parent="0" />
        <mxCell id="Tzm54AQghpNcZX4kV2QB-3" value="" style="edgeStyle=orthogonalEdgeStyle;rounded=0;orthogonalLoop=1;jettySize=auto;html=1;" parent="1" source="Tzm54AQghpNcZX4kV2QB-1" target="Tzm54AQghpNcZX4kV2QB-2" edge="1">
          <mxGeometry relative="1" as="geometry" />
        </mxCell>
        <mxCell id="Tzm54AQghpNcZX4kV2QB-1" value="Início" style="ellipse;whiteSpace=wrap;html=1;" parent="1" vertex="1">
          <mxGeometry x="210" y="30" width="60" height="40" as="geometry" />
        </mxCell>
        <mxCell id="Tzm54AQghpNcZX4kV2QB-5" value="" style="edgeStyle=orthogonalEdgeStyle;rounded=0;orthogonalLoop=1;jettySize=auto;html=1;" parent="1" source="Tzm54AQghpNcZX4kV2QB-2" target="Tzm54AQghpNcZX4kV2QB-4" edge="1">
          <mxGeometry relative="1" as="geometry" />
        </mxCell>
        <mxCell id="Tzm54AQghpNcZX4kV2QB-11" style="edgeStyle=orthogonalEdgeStyle;rounded=0;orthogonalLoop=1;jettySize=auto;html=1;exitX=1;exitY=0.5;exitDx=0;exitDy=0;entryX=0.5;entryY=0;entryDx=0;entryDy=0;" parent="1" source="Tzm54AQghpNcZX4kV2QB-2" target="Tzm54AQghpNcZX4kV2QB-7" edge="1">
          <mxGeometry relative="1" as="geometry" />
        </mxCell>
        <mxCell id="Tzm54AQghpNcZX4kV2QB-2" value="É terça, quinta ou sábado?" style="rhombus;whiteSpace=wrap;html=1;" parent="1" vertex="1">
          <mxGeometry x="200" y="100" width="80" height="80" as="geometry" />
        </mxCell>
        <mxCell id="Tzm54AQghpNcZX4kV2QB-4" value="Fim" style="ellipse;whiteSpace=wrap;html=1;" parent="1" vertex="1">
          <mxGeometry x="110" y="122.5" width="50" height="35" as="geometry" />
        </mxCell>
        <mxCell id="Tzm54AQghpNcZX4kV2QB-6" value="F" style="text;html=1;align=center;verticalAlign=middle;resizable=0;points=[];autosize=1;strokeColor=none;fillColor=none;" parent="1" vertex="1">
          <mxGeometry x="175" y="118" width="30" height="30" as="geometry" />
        </mxCell>
        <mxCell id="Tzm54AQghpNcZX4kV2QB-10" value="" style="group" parent="1" vertex="1" connectable="0">
          <mxGeometry x="250" y="190" width="150" height="60" as="geometry" />
        </mxCell>
        <mxCell id="Tzm54AQghpNcZX4kV2QB-7" value="" style="rounded=0;whiteSpace=wrap;html=1;" parent="Tzm54AQghpNcZX4kV2QB-10" vertex="1">
          <mxGeometry x="15" width="120" height="60" as="geometry" />
        </mxCell>
        <mxCell id="Tzm54AQghpNcZX4kV2QB-9" value="Vai na cozinha até a gaveta de sacolas de compras" style="text;whiteSpace=wrap;html=1;" parent="Tzm54AQghpNcZX4kV2QB-10" vertex="1">
          <mxGeometry y="10" width="150" height="40" as="geometry" />
        </mxCell>
        <mxCell id="Tzm54AQghpNcZX4kV2QB-18" value="" style="edgeStyle=orthogonalEdgeStyle;rounded=0;orthogonalLoop=1;jettySize=auto;html=1;" parent="1" source="Tzm54AQghpNcZX4kV2QB-12" target="Tzm54AQghpNcZX4kV2QB-17" edge="1">
          <mxGeometry relative="1" as="geometry" />
        </mxCell>
        <mxCell id="Tzm54AQghpNcZX4kV2QB-20" value="" style="edgeStyle=orthogonalEdgeStyle;rounded=0;orthogonalLoop=1;jettySize=auto;html=1;" parent="1" source="Tzm54AQghpNcZX4kV2QB-12" target="Tzm54AQghpNcZX4kV2QB-19" edge="1">
          <mxGeometry relative="1" as="geometry" />
        </mxCell>
        <mxCell id="Tzm54AQghpNcZX4kV2QB-12" value="Há 3 sacolas ou mais na gaveta?" style="rhombus;whiteSpace=wrap;html=1;" parent="1" vertex="1">
          <mxGeometry x="285" y="280" width="80" height="80" as="geometry" />
        </mxCell>
        <mxCell id="Tzm54AQghpNcZX4kV2QB-13" value="" style="edgeStyle=orthogonalEdgeStyle;rounded=0;orthogonalLoop=1;jettySize=auto;html=1;" parent="1" source="Tzm54AQghpNcZX4kV2QB-9" target="Tzm54AQghpNcZX4kV2QB-12" edge="1">
          <mxGeometry relative="1" as="geometry" />
        </mxCell>
        <mxCell id="Tzm54AQghpNcZX4kV2QB-35" style="edgeStyle=orthogonalEdgeStyle;rounded=0;orthogonalLoop=1;jettySize=auto;html=1;exitX=0.5;exitY=1;exitDx=0;exitDy=0;entryX=0.5;entryY=0;entryDx=0;entryDy=0;" parent="1" source="Tzm54AQghpNcZX4kV2QB-17" target="Tzm54AQghpNcZX4kV2QB-34" edge="1">
          <mxGeometry relative="1" as="geometry" />
        </mxCell>
        <mxCell id="Tzm54AQghpNcZX4kV2QB-17" value="Pega 3 sacolas" style="rounded=0;whiteSpace=wrap;html=1;" parent="1" vertex="1">
          <mxGeometry x="400" y="300" width="70" height="40" as="geometry" />
        </mxCell>
        <mxCell id="Tzm54AQghpNcZX4kV2QB-22" value="" style="edgeStyle=orthogonalEdgeStyle;rounded=0;orthogonalLoop=1;jettySize=auto;html=1;" parent="1" source="Tzm54AQghpNcZX4kV2QB-19" target="Tzm54AQghpNcZX4kV2QB-21" edge="1">
          <mxGeometry relative="1" as="geometry" />
        </mxCell>
        <mxCell id="Tzm54AQghpNcZX4kV2QB-19" value="Pega a quantidade de sacolas que houver" style="rounded=0;whiteSpace=wrap;html=1;" parent="1" vertex="1">
          <mxGeometry x="140" y="292.5" width="110" height="55" as="geometry" />
        </mxCell>
        <mxCell id="Tzm54AQghpNcZX4kV2QB-24" value="" style="edgeStyle=orthogonalEdgeStyle;rounded=0;orthogonalLoop=1;jettySize=auto;html=1;" parent="1" source="Tzm54AQghpNcZX4kV2QB-21" target="Tzm54AQghpNcZX4kV2QB-23" edge="1">
          <mxGeometry relative="1" as="geometry" />
        </mxCell>
        <mxCell id="Tzm54AQghpNcZX4kV2QB-21" value="Procura o resto das sacolas em outro lugar" style="whiteSpace=wrap;html=1;rounded=0;" parent="1" vertex="1">
          <mxGeometry x="135" y="380" width="120" height="60" as="geometry" />
        </mxCell>
        <mxCell id="Tzm54AQghpNcZX4kV2QB-26" style="edgeStyle=orthogonalEdgeStyle;rounded=0;orthogonalLoop=1;jettySize=auto;html=1;exitX=0;exitY=0.5;exitDx=0;exitDy=0;entryX=0;entryY=0.5;entryDx=0;entryDy=0;" parent="1" source="Tzm54AQghpNcZX4kV2QB-23" target="Tzm54AQghpNcZX4kV2QB-21" edge="1">
          <mxGeometry relative="1" as="geometry" />
        </mxCell>
        <mxCell id="Tzm54AQghpNcZX4kV2QB-36" style="edgeStyle=orthogonalEdgeStyle;rounded=0;orthogonalLoop=1;jettySize=auto;html=1;exitX=1;exitY=0.5;exitDx=0;exitDy=0;entryX=0.5;entryY=0;entryDx=0;entryDy=0;" parent="1" source="Tzm54AQghpNcZX4kV2QB-23" target="Tzm54AQghpNcZX4kV2QB-34" edge="1">
          <mxGeometry relative="1" as="geometry" />
        </mxCell>
        <mxCell id="Tzm54AQghpNcZX4kV2QB-23" value="Conseguiu 3 sacolas?" style="rhombus;whiteSpace=wrap;html=1;" parent="1" vertex="1">
          <mxGeometry x="155" y="470" width="80" height="80" as="geometry" />
        </mxCell>
        <mxCell id="Tzm54AQghpNcZX4kV2QB-27" value="F" style="text;html=1;align=center;verticalAlign=middle;resizable=0;points=[];autosize=1;strokeColor=none;fillColor=none;" parent="1" vertex="1">
          <mxGeometry x="130" y="480" width="30" height="30" as="geometry" />
        </mxCell>
        <mxCell id="Tzm54AQghpNcZX4kV2QB-28" value="F" style="text;html=1;align=center;verticalAlign=middle;resizable=0;points=[];autosize=1;strokeColor=none;fillColor=none;" parent="1" vertex="1">
          <mxGeometry x="255" y="298" width="30" height="30" as="geometry" />
        </mxCell>
        <mxCell id="Tzm54AQghpNcZX4kV2QB-29" value="V" style="text;html=1;align=center;verticalAlign=middle;resizable=0;points=[];autosize=1;strokeColor=none;fillColor=none;" parent="1" vertex="1">
          <mxGeometry x="355" y="298" width="30" height="30" as="geometry" />
        </mxCell>
        <mxCell id="Tzm54AQghpNcZX4kV2QB-32" value="V" style="text;html=1;align=center;verticalAlign=middle;resizable=0;points=[];autosize=1;strokeColor=none;fillColor=none;" parent="1" vertex="1">
          <mxGeometry x="280" y="118" width="30" height="30" as="geometry" />
        </mxCell>
        <mxCell id="Tzm54AQghpNcZX4kV2QB-39" value="" style="edgeStyle=orthogonalEdgeStyle;rounded=0;orthogonalLoop=1;jettySize=auto;html=1;" parent="1" source="Tzm54AQghpNcZX4kV2QB-34" target="Tzm54AQghpNcZX4kV2QB-38" edge="1">
          <mxGeometry relative="1" as="geometry" />
        </mxCell>
        <mxCell id="Tzm54AQghpNcZX4kV2QB-34" value="Põe as 3 sacolas de plástico na mesa" style="whiteSpace=wrap;html=1;rounded=0;" parent="1" vertex="1">
          <mxGeometry x="375" y="535" width="120" height="50" as="geometry" />
        </mxCell>
        <mxCell id="Tzm54AQghpNcZX4kV2QB-37" value="V" style="text;html=1;align=center;verticalAlign=middle;resizable=0;points=[];autosize=1;strokeColor=none;fillColor=none;" parent="1" vertex="1">
          <mxGeometry x="235" y="488" width="30" height="30" as="geometry" />
        </mxCell>
        <mxCell id="Tzm54AQghpNcZX4kV2QB-41" value="" style="edgeStyle=orthogonalEdgeStyle;rounded=0;orthogonalLoop=1;jettySize=auto;html=1;" parent="1" source="Tzm54AQghpNcZX4kV2QB-38" target="Tzm54AQghpNcZX4kV2QB-40" edge="1">
          <mxGeometry relative="1" as="geometry" />
        </mxCell>
        <mxCell id="Tzm54AQghpNcZX4kV2QB-38" value="Pega uma das sacolas" style="whiteSpace=wrap;html=1;rounded=0;" parent="1" vertex="1">
          <mxGeometry x="375" y="620" width="120" height="40" as="geometry" />
        </mxCell>
        <mxCell id="Tzm54AQghpNcZX4kV2QB-43" value="" style="edgeStyle=orthogonalEdgeStyle;rounded=0;orthogonalLoop=1;jettySize=auto;html=1;" parent="1" source="Tzm54AQghpNcZX4kV2QB-40" target="Tzm54AQghpNcZX4kV2QB-42" edge="1">
          <mxGeometry relative="1" as="geometry" />
        </mxCell>
        <mxCell id="Tzm54AQghpNcZX4kV2QB-40" value="Vai até um banheiro que ainda não tenha ido da casa" style="whiteSpace=wrap;html=1;rounded=0;" parent="1" vertex="1">
          <mxGeometry x="375" y="690" width="120" height="50" as="geometry" />
        </mxCell>
        <mxCell id="4O4lry2UisstkxIPcB5W-5" value="" style="edgeStyle=orthogonalEdgeStyle;rounded=0;orthogonalLoop=1;jettySize=auto;html=1;" edge="1" parent="1" source="Tzm54AQghpNcZX4kV2QB-42" target="4O4lry2UisstkxIPcB5W-4">
          <mxGeometry relative="1" as="geometry" />
        </mxCell>
        <mxCell id="Tzm54AQghpNcZX4kV2QB-42" value="Abre o lixeiro, recolhe o saco de lixo de dentro do lixeiro, fecha o lixeiro" style="whiteSpace=wrap;html=1;rounded=0;" parent="1" vertex="1">
          <mxGeometry x="375" y="760" width="120" height="70" as="geometry" />
        </mxCell>
        <mxCell id="4O4lry2UisstkxIPcB5W-6" style="edgeStyle=orthogonalEdgeStyle;rounded=0;orthogonalLoop=1;jettySize=auto;html=1;exitX=0;exitY=0.5;exitDx=0;exitDy=0;entryX=0;entryY=0.5;entryDx=0;entryDy=0;" edge="1" parent="1" source="4O4lry2UisstkxIPcB5W-4" target="Tzm54AQghpNcZX4kV2QB-40">
          <mxGeometry relative="1" as="geometry" />
        </mxCell>
        <mxCell id="4O4lry2UisstkxIPcB5W-9" value="" style="edgeStyle=orthogonalEdgeStyle;rounded=0;orthogonalLoop=1;jettySize=auto;html=1;" edge="1" parent="1" source="4O4lry2UisstkxIPcB5W-4" target="4O4lry2UisstkxIPcB5W-8">
          <mxGeometry relative="1" as="geometry" />
        </mxCell>
        <mxCell id="4O4lry2UisstkxIPcB5W-4" value="Já foi em todos os banheiros?" style="rhombus;whiteSpace=wrap;html=1;" vertex="1" parent="1">
          <mxGeometry x="395" y="860" width="80" height="80" as="geometry" />
        </mxCell>
        <mxCell id="4O4lry2UisstkxIPcB5W-7" value="F" style="text;html=1;align=center;verticalAlign=middle;resizable=0;points=[];autosize=1;strokeColor=none;fillColor=none;" vertex="1" parent="1">
          <mxGeometry x="375" y="878" width="30" height="30" as="geometry" />
        </mxCell>
        <mxCell id="4O4lry2UisstkxIPcB5W-26" style="edgeStyle=orthogonalEdgeStyle;rounded=0;orthogonalLoop=1;jettySize=auto;html=1;exitX=0.5;exitY=1;exitDx=0;exitDy=0;entryX=0.5;entryY=0;entryDx=0;entryDy=0;" edge="1" parent="1" source="4O4lry2UisstkxIPcB5W-8" target="4O4lry2UisstkxIPcB5W-25">
          <mxGeometry relative="1" as="geometry" />
        </mxCell>
        <mxCell id="4O4lry2UisstkxIPcB5W-8" value="Amarra juntos os 3 sacos de lixo" style="whiteSpace=wrap;html=1;rounded=0;" vertex="1" parent="1">
          <mxGeometry x="495" y="877.5" width="120" height="45" as="geometry" />
        </mxCell>
        <mxCell id="4O4lry2UisstkxIPcB5W-13" style="edgeStyle=orthogonalEdgeStyle;rounded=0;orthogonalLoop=1;jettySize=auto;html=1;exitX=1;exitY=0.5;exitDx=0;exitDy=0;entryX=0.5;entryY=0;entryDx=0;entryDy=0;" edge="1" parent="1" source="4O4lry2UisstkxIPcB5W-10" target="4O4lry2UisstkxIPcB5W-12">
          <mxGeometry relative="1" as="geometry" />
        </mxCell>
        <mxCell id="4O4lry2UisstkxIPcB5W-17" style="edgeStyle=orthogonalEdgeStyle;rounded=0;orthogonalLoop=1;jettySize=auto;html=1;exitX=0;exitY=0.5;exitDx=0;exitDy=0;entryX=0.5;entryY=0;entryDx=0;entryDy=0;" edge="1" parent="1" source="4O4lry2UisstkxIPcB5W-10" target="4O4lry2UisstkxIPcB5W-16">
          <mxGeometry relative="1" as="geometry">
            <Array as="points">
              <mxPoint x="560" y="1050" />
              <mxPoint x="560" y="1230" />
              <mxPoint x="665" y="1230" />
            </Array>
          </mxGeometry>
        </mxCell>
        <mxCell id="4O4lry2UisstkxIPcB5W-10" value="A porta está trancada?" style="rhombus;whiteSpace=wrap;html=1;" vertex="1" parent="1">
          <mxGeometry x="625" y="1010" width="80" height="80" as="geometry" />
        </mxCell>
        <mxCell id="4O4lry2UisstkxIPcB5W-15" value="" style="edgeStyle=orthogonalEdgeStyle;rounded=0;orthogonalLoop=1;jettySize=auto;html=1;" edge="1" parent="1" source="4O4lry2UisstkxIPcB5W-12" target="4O4lry2UisstkxIPcB5W-14">
          <mxGeometry relative="1" as="geometry" />
        </mxCell>
        <mxCell id="4O4lry2UisstkxIPcB5W-12" value="Procure a chave para destrancar a porta" style="whiteSpace=wrap;html=1;rounded=0;" vertex="1" parent="1">
          <mxGeometry x="705" y="1090" width="120" height="45" as="geometry" />
        </mxCell>
        <mxCell id="4O4lry2UisstkxIPcB5W-18" style="edgeStyle=orthogonalEdgeStyle;rounded=0;orthogonalLoop=1;jettySize=auto;html=1;exitX=0.5;exitY=1;exitDx=0;exitDy=0;entryX=0.5;entryY=0;entryDx=0;entryDy=0;" edge="1" parent="1" source="4O4lry2UisstkxIPcB5W-14" target="4O4lry2UisstkxIPcB5W-16">
          <mxGeometry relative="1" as="geometry">
            <Array as="points">
              <mxPoint x="765" y="1227" />
              <mxPoint x="665" y="1227" />
            </Array>
          </mxGeometry>
        </mxCell>
        <mxCell id="4O4lry2UisstkxIPcB5W-14" value="Destranque a porta" style="whiteSpace=wrap;html=1;rounded=0;" vertex="1" parent="1">
          <mxGeometry x="705" y="1160" width="120" height="45" as="geometry" />
        </mxCell>
        <mxCell id="4O4lry2UisstkxIPcB5W-29" style="edgeStyle=orthogonalEdgeStyle;rounded=0;orthogonalLoop=1;jettySize=auto;html=1;exitX=0.5;exitY=1;exitDx=0;exitDy=0;entryX=0.5;entryY=0;entryDx=0;entryDy=0;" edge="1" parent="1" source="4O4lry2UisstkxIPcB5W-16" target="4O4lry2UisstkxIPcB5W-19">
          <mxGeometry relative="1" as="geometry" />
        </mxCell>
        <mxCell id="4O4lry2UisstkxIPcB5W-16" value="Abre a porta" style="whiteSpace=wrap;html=1;rounded=0;" vertex="1" parent="1">
          <mxGeometry x="605" y="1250" width="120" height="45" as="geometry" />
        </mxCell>
        <mxCell id="4O4lry2UisstkxIPcB5W-22" value="" style="edgeStyle=orthogonalEdgeStyle;rounded=0;orthogonalLoop=1;jettySize=auto;html=1;" edge="1" parent="1" source="4O4lry2UisstkxIPcB5W-19" target="4O4lry2UisstkxIPcB5W-21">
          <mxGeometry relative="1" as="geometry" />
        </mxCell>
        <mxCell id="4O4lry2UisstkxIPcB5W-19" value="Ande até o poste perto de casa" style="whiteSpace=wrap;html=1;rounded=0;" vertex="1" parent="1">
          <mxGeometry x="485" y="1380" width="120" height="45" as="geometry" />
        </mxCell>
        <mxCell id="4O4lry2UisstkxIPcB5W-24" value="" style="edgeStyle=orthogonalEdgeStyle;rounded=0;orthogonalLoop=1;jettySize=auto;html=1;" edge="1" parent="1" source="4O4lry2UisstkxIPcB5W-21" target="4O4lry2UisstkxIPcB5W-23">
          <mxGeometry relative="1" as="geometry" />
        </mxCell>
        <mxCell id="4O4lry2UisstkxIPcB5W-21" value="Coloque o lixo aí" style="whiteSpace=wrap;html=1;rounded=0;" vertex="1" parent="1">
          <mxGeometry x="485" y="1450" width="120" height="45" as="geometry" />
        </mxCell>
        <mxCell id="4O4lry2UisstkxIPcB5W-23" value="Fim" style="ellipse;whiteSpace=wrap;html=1;rounded=0;" vertex="1" parent="1">
          <mxGeometry x="522.5" y="1520" width="45" height="32.5" as="geometry" />
        </mxCell>
        <mxCell id="4O4lry2UisstkxIPcB5W-27" style="edgeStyle=orthogonalEdgeStyle;rounded=0;orthogonalLoop=1;jettySize=auto;html=1;exitX=1;exitY=0.5;exitDx=0;exitDy=0;entryX=0.5;entryY=0;entryDx=0;entryDy=0;" edge="1" parent="1" source="4O4lry2UisstkxIPcB5W-25" target="4O4lry2UisstkxIPcB5W-10">
          <mxGeometry relative="1" as="geometry" />
        </mxCell>
        <mxCell id="4O4lry2UisstkxIPcB5W-28" style="edgeStyle=orthogonalEdgeStyle;rounded=0;orthogonalLoop=1;jettySize=auto;html=1;exitX=0;exitY=0.5;exitDx=0;exitDy=0;entryX=0.5;entryY=0;entryDx=0;entryDy=0;" edge="1" parent="1" source="4O4lry2UisstkxIPcB5W-25" target="4O4lry2UisstkxIPcB5W-19">
          <mxGeometry relative="1" as="geometry">
            <Array as="points">
              <mxPoint x="485" y="980" />
              <mxPoint x="485" y="1340" />
              <mxPoint x="545" y="1340" />
            </Array>
          </mxGeometry>
        </mxCell>
        <mxCell id="4O4lry2UisstkxIPcB5W-25" value="A porta está fechada?" style="rhombus;whiteSpace=wrap;html=1;" vertex="1" parent="1">
          <mxGeometry x="505" y="940" width="80" height="80" as="geometry" />
        </mxCell>
        <mxCell id="4O4lry2UisstkxIPcB5W-30" value="V" style="text;html=1;align=center;verticalAlign=middle;resizable=0;points=[];autosize=1;strokeColor=none;fillColor=none;" vertex="1" parent="1">
          <mxGeometry x="585" y="958" width="30" height="30" as="geometry" />
        </mxCell>
        <mxCell id="4O4lry2UisstkxIPcB5W-31" value="F" style="text;html=1;align=center;verticalAlign=middle;resizable=0;points=[];autosize=1;strokeColor=none;fillColor=none;" vertex="1" parent="1">
          <mxGeometry x="485" y="958" width="30" height="30" as="geometry" />
        </mxCell>
        <mxCell id="4O4lry2UisstkxIPcB5W-32" value="V" style="text;html=1;align=center;verticalAlign=middle;resizable=0;points=[];autosize=1;strokeColor=none;fillColor=none;" vertex="1" parent="1">
          <mxGeometry x="695" y="1028" width="30" height="30" as="geometry" />
        </mxCell>
        <mxCell id="4O4lry2UisstkxIPcB5W-33" value="F" style="text;html=1;align=center;verticalAlign=middle;resizable=0;points=[];autosize=1;strokeColor=none;fillColor=none;" vertex="1" parent="1">
          <mxGeometry x="595" y="1028" width="30" height="30" as="geometry" />
        </mxCell>
      </root>
    </mxGraphModel>
  </diagram>
</mxfile>
